<svg width="800" height="600" viewBox="0 0 800 600" fill="none" xmlns="http://www.w3.org/2000/svg">
  <g opacity="0.35">
    <path
      d="M118.7 567.4c-21.2-96.6 114-270.5 114-270.5s-47.1-145.4 30.6-198.9c77.7-53.6 172.7-2.5 172.7-2.5s18-111.9 77.3-77.8c59.3 34.1 33 125.6 33 125.6s79.2-34.9 95.1 18c15.9 52.9-82.5 96.9-82.5 96.9s120.7 3.1 111.7 64.5c-9 61.4-147.3 46-147.3 46s59.4 95.2 24.9 146.7c-34.5 51.5-103.6-16.6-103.6-16.6s-21 93.1-87.9 96.8c-66.9 3.7-105.7-116.4-105.7-116.4s-83.9 170.5-131.5 165.4c-47.6-5.1-59.3-76.2-59.3-76.2Z"
      fill="#F8EFF3"
    />
    <path
      d="M437.4 160.8c-22.6 13.7-22.8 61.3-1.7 105.7 21.1 44.4 55.2 71.5 77.8 57.8 22.6-13.7 22.8-61.3 1.7-105.7-21.1-44.4-55.2-71.5-77.8-57.8Z"
      fill="#F6E9EE"
    />
    <path
      d="M604.5 164.9c12.9-10.6 102-60.1 109.2-48.8 7.2 11.3-23.4 95.1-42.3 110.8-18.9 15.7-67.9-37.6-66.9-62Z"
      fill="#F6E9EE"
    />
    <circle cx="496.3" cy="208.8" r="24.5" fill="#FBF4F7" />
  </g>
</svg>
